<svg xmlns:xlink="http://www.w3.org/1999/xlink" width="91" height="134" viewBox="0 0 91 134" fill="none" xmlns="http://www.w3.org/2000/svg">
    <path d="M39.9868 133.396H51.0352L47.3161 47.7549H42.6388L39.9868 133.396Z" fill="#E6E6E6"></path>
    <path data-blade="0" d="M37.9613 39.9697L41.4619 1.64554C41.5084 1.17312 41.9074 0.813211 42.3822 0.815933H45.2639C45.733 0.821377 46.1229 1.17887 46.1691 1.64554L50.3486 46.6837H42.2612L37.9613 39.9697Z" fill="#808080"></path>
    <path data-blade="1" d="M1.5853 72.9824L41.418 45.8237L42.7158 54.2278L39.0493 61.259L3.8788 77.0412C3.4523 77.2348 2.9481 77.0715 2.7168 76.6641L1.2986 74.1595C1.086 73.7503 1.2088 73.2477 1.5853 72.9824Z" fill="#FF6D10"></path>
    <path data-blade="2" d="M58.3762 49.0228L89.4579 71.7456C89.8351 72.0271 89.9394 72.5476 89.6996 72.9526L88.1907 75.4118C87.9433 75.8183 87.4303 75.9738 86.9988 75.7738L42.7153 54.4393L48.0265 49.0225L58.3762 49.0228Z" fill="#808080"></path>
    <path d="M39.4542 50.7724C39.4542 54.2061 42.2378 56.9897 45.6714 56.9897C49.1051 56.9897 51.8886 54.2061 51.8886 50.7724C51.8886 47.3388 49.1051 44.5552 45.6714 44.5552C42.2378 44.5552 39.4542 47.3388 39.4542 50.7724Z" fill="#383838" stroke="#383838" stroke-width="0.933661px"></path>
</svg>