<svg xmlns:xlink="http://www.w3.org/1999/xlink" xmlns="http://www.w3.org/2000/svg" width="89" height="134" viewBox="0 0 89 134" fill="none">
    <path data-mast="" d="M38.9868 133.396H50.0352L46.3161 47.7549H41.6388L38.9868 133.396Z" fill="#FF6D10"/>
    <path d="M36.9613 39.9697L40.4619 1.64554C40.5084 1.17312 40.9074 0.813211 41.3822 0.815933H44.2639C44.733 0.821377 45.1229 1.17887 45.1691 1.64554L49.3486 46.6837H41.2612L36.9613 39.9697Z" fill="#e6e6e6"/>
    <path d="M0.5853 72.9824L40.418 45.8237L41.7158 54.2278L38.0493 61.259L2.8788 77.0412C2.4523 77.2348 1.9481 77.0715 1.7168 76.6641L0.298603 74.1595C0.0860031 73.7503 0.2088 73.2477 0.5853 72.9824Z" fill="#e6e6e6"/>
    <path d="M57.3762 49.0228L88.4579 71.7456C88.8351 72.0271 88.9394 72.5476 88.6996 72.9526L87.1907 75.4118C86.9433 75.8183 86.4303 75.9738 85.9988 75.7738L41.7153 54.4393L47.0265 49.0225L57.3762 49.0228Z" fill="#e6e6e6"/>
    <path d="M38.4542 50.7724C38.4542 54.2061 41.2378 56.9897 44.6714 56.9897C48.1051 56.9897 50.8886 54.2061 50.8886 50.7724C50.8886 47.3388 48.1051 44.5552 44.6714 44.5552C41.2378 44.5552 38.4542 47.3388 38.4542 50.7724Z" fill="#383838" stroke="#383838" stroke-width="0.933661px"/>
</svg>