<svg width="1.5rem" height="1.5rem" viewBox="0 0 33 35" xmlns="http://www.w3.org/2000/svg" fill="currentColor"><g clip-path="url(#clip0_1418_6663)"><path d="M16.3105 20.0301C17.5817 20.0301 18.6121 18.9996 18.6121 17.7284C18.6121 16.4573 17.5817 15.4268 16.3105 15.4268C15.0393 15.4268 14.0088 16.4573 14.0088 17.7284C14.0088 18.9996 15.0393 20.0301 16.3105 20.0301Z" stroke-width="1.05865" stroke-miterlimit="10"/><path d="M27.9891 17.8774C25.3666 31.8188 13.3574 29.2399 13.3574 29.2399" stroke-width="1.05865" stroke-miterlimit="10"/><path d="M0.499488 32.9165L0.498311 32.9153C0.434163 32.86 0.422981 32.7647 0.471239 32.6958L10.094 19.4748C10.3683 19.0982 10.7602 18.8245 11.2093 18.6974L13.6722 17.9971L14.4314 19.3559L14.4708 19.4266L14.5444 19.4607L16.0833 20.1728L1.68829 33.7651C1.62767 33.8216 1.53351 33.8234 1.46995 33.7698L0.499488 32.9171V32.9165Z" stroke-width="1.05865" stroke-miterlimit="10"/><path d="M32.0915 2.08269L32.0927 2.08386C32.1568 2.13918 32.168 2.23452 32.1186 2.30397L22.2415 15.8557C22.0803 16.0764 21.8508 16.2376 21.5883 16.313L18.8252 17.108L18.0684 15.7468L18.0289 15.6762L17.9554 15.6421L16.4141 14.9323L30.9009 1.23581C30.9621 1.17873 31.0563 1.17637 31.1199 1.23052L32.0903 2.08328L32.0915 2.08269Z" stroke-width="1.05865" stroke-miterlimit="10"/><path d="M4.13281 18.8169C5.22098 4.67257 17.4397 5.92846 17.4397 5.92846" stroke-width="1.05865" stroke-miterlimit="10"/></g><defs><clipPath id="clip0_1418_6663"><rect width="32.5902" height="33.5" transform="translate(0 0.75)"/></clipPath></defs></svg>