<svg width="91" height="134" viewBox="0 0 91 134" xmlns="http://www.w3.org/2000/svg">
    <g>
        <path d="M51.0132 133.396H39.9648L43.6839 47.7549H48.3612L51.0132 133.396Z" fill="#E6E6E6"/>
        <path data-blade="0" d="M53.0387 39.9697L49.5381 1.64554C49.4916 1.17312 49.0926 0.813211 48.6178 0.815933H45.7361C45.267 0.821377 44.8771 1.17887 44.8309 1.64554L40.6514 46.6837H48.7388L53.0387 39.9697Z" fill="#808080"/>
        <path data-blade="1" d="M89.4147 72.9824L49.582 45.8237L48.2842 54.2278L51.9507 61.259L87.1212 77.0412C87.5477 77.2348 88.0519 77.0715 88.2832 76.6641L89.7014 74.1595C89.914 73.7503 89.7912 73.2477 89.4147 72.9824Z" fill="#808080"/>
        <path data-blade="2" d="M32.6238 49.0228L1.54207 71.7456C1.16492 72.0271 1.06058 72.5476 1.30042 72.9526L2.80932 75.4118C3.05672 75.8183 3.56966 75.9738 4.00125 75.7738L48.2847 54.4393L42.9735 49.0225C42.9735 49.0228 32.6238 49.0228 32.6238 49.0228Z" fill="#808080"/>
        <path d="M51.5458 50.7724C51.5458 54.2061 48.7622 56.9897 45.3286 56.9897C41.8949 56.9897 39.1114 54.2061 39.1114 50.7724C39.1114 47.3388 41.8949 44.5552 45.3286 44.5552C48.7622 44.5552 51.5458 47.3388 51.5458 50.7724Z" fill="#383838" stroke="#383838" stroke-width="0.933661"/>
    </g>
</svg>