<svg width="13" height="118" viewBox="0 0 13 118" xmlns="http://www.w3.org/2000/svg"><path d="M12.6093 0.737532C12.6093 39.6166 12.6093 78.4321 12.6093 117.391C10.5421 117.391 8.68484 117.391 6.68225 117.391C7.2152 112.569 5.56791 108.272 3.12927 104.293C0.238438 99.5824 0.254588 94.5057 0.674485 89.3017C1.12668 83.7316 1.46583 78.1615 1.88573 72.5914C2.43483 65.4458 3.03237 58.3162 3.61377 51.1705C4.06597 45.5209 4.53431 39.8713 5.00266 34.2057C5.56791 27.5853 6.13316 20.9489 6.7307 14.3285C6.9891 11.448 7.2152 8.55155 7.65125 5.68694C7.8289 4.54109 8.36184 3.39525 8.97554 2.40855C9.78303 1.13539 11.0266 0.4829 12.6093 0.737532Z" fill="#808080"/></svg>