<svg width="12" height="118" viewBox="0 0 12 118" xmlns="http://www.w3.org/2000/svg"><path d="M0.292163 0.870344C0.292163 39.7494 0.292163 78.5649 0.292163 117.524C2.20034 117.524 3.91471 117.524 5.76326 117.524C5.27131 112.701 6.79188 108.405 9.04293 104.426C11.7114 99.7152 11.6965 94.6385 11.3089 89.4345C10.8915 83.8644 10.5784 78.2943 10.1908 72.7243C9.68396 65.5786 9.13238 58.449 8.5957 51.3034C8.17829 45.6537 7.74597 40.0041 7.31365 34.3385C6.79188 27.7181 6.27012 21.0817 5.71853 14.4613C5.48001 11.5808 5.27131 8.68436 4.8688 5.81975C4.70482 4.67391 4.21287 3.52806 3.64638 2.54137C2.901 1.26821 1.75311 0.615712 0.292163 0.870344Z" fill="#808080"/></svg>