<?xml version="1.0" encoding="utf-8"?>
<svg width="12" height="118" viewBox="0 0 12 118" xmlns="http://www.w3.org/2000/svg">
  <path d="M 0.292 1.937 C 0.292 40.816 0.292 79.631 0.292 118.59 C 2.2 118.59 3.915 118.59 5.763 118.59 C 5.271 113.767 6.792 109.471 9.043 105.492 C 11.711 100.782 11.697 95.705 11.309 90.501 C 10.892 84.931 10.578 79.361 10.191 73.791 C 9.684 66.645 9.132 59.515 8.596 52.37 C 8.178 46.72 7.746 41.07 7.314 35.405 C 6.792 28.784 6.27 22.148 5.719 15.528 C 5.48 12.647 5.271 9.751 4.869 6.886 C 4.705 5.74 4.213 4.594 3.646 3.608 C 2.901 2.335 1.753 1.682 0.292 1.937 Z" fill="#808080"/>
  <path d="M 0.485 1.717 C 0.485 40.596 0.485 79.413 0.485 118.371 C 2.356 118.371 4.038 118.371 5.852 118.371 C 5.369 113.549 6.861 109.251 9.069 105.273 C 11.686 100.562 11.672 95.485 11.292 90.283 C 10.883 84.711 10.575 79.141 10.195 73.571 C 9.698 66.425 9.155 59.297 8.63 52.15 C 8.221 46.502 7.796 40.85 7.372 35.185 C 6.861 28.566 6.349 21.929 5.808 15.309 C 5.575 12.427 5.369 9.531 4.974 6.667 C 4.813 5.521 4.331 4.375 3.775 3.389 C 3.044 2.114 1.918 1.463 0.485 1.717 Z" style="fill: rgb(235, 115, 35);"/>
</svg>