<?xml version="1.0" encoding="utf-8"?>
<svg width="12" height="118" viewBox="0 0 12 118" xmlns="http://www.w3.org/2000/svg">
  <path d="M 0.292 1.937 C 0.292 40.816 0.292 79.631 0.292 118.59 C 2.2 118.59 3.915 118.59 5.763 118.59 C 5.271 113.767 6.792 109.471 9.043 105.492 C 11.711 100.782 11.697 95.705 11.309 90.501 C 10.892 84.931 10.578 79.361 10.191 73.791 C 9.684 66.645 9.132 59.515 8.596 52.37 C 8.178 46.72 7.746 41.07 7.314 35.405 C 6.792 28.784 6.27 22.148 5.719 15.528 C 5.48 12.647 5.271 9.751 4.869 6.886 C 4.705 5.74 4.213 4.594 3.646 3.608 C 2.901 2.335 1.753 1.682 0.292 1.937 Z" fill="#808080"/>
  <path d="M 0.485 20.902 C 0.485 53.387 0.485 85.82 0.485 118.371 C 2.356 118.371 4.038 118.371 5.852 118.371 C 5.369 114.342 6.861 110.751 9.069 107.427 C 11.686 103.491 11.672 99.249 11.292 94.902 C 10.882 90.247 10.575 85.593 10.195 80.939 C 9.698 74.968 9.156 69.012 8.63 63.041 C 8.221 58.322 7.796 53.599 7.372 48.866 C 6.861 43.335 6.349 37.79 5.808 32.259 C 5.574 29.851 5.369 27.431 4.974 25.038 C 4.813 24.08 4.331 23.123 3.775 22.299 C 3.044 21.234 1.918 20.69 0.485 20.902 Z" style="fill: rgb(115, 185, 88);"/>
</svg>