<svg xmlns="http://www.w3.org/2000/svg" xmlns:xlink="http://www.w3.org/1999/xlink" viewBox="0 0 13 117"><defs><style>.cls-1{fill:none;}.cls-2{fill:gray;}.cls-3{clip-path:url(#clip-path);}.cls-4{fill:#eb7323;}</style><clipPath id="clip-path"><path class="cls-1" d="M.9.2V116.85H6.37c-.49-4.82,1-9.11,3.28-13.09,2.67-4.71,2.65-9.79,2.26-15-.41-5.57-.73-11.14-1.11-16.71-.51-7.14-1.06-14.27-1.6-21.42q-.63-8.48-1.28-17c-.52-6.62-1-13.26-1.6-19.88C6.09,10.91,5.88,8,5.47,5.15A9.36,9.36,0,0,0,4.25,1.87,3.09,3.09,0,0,0,.9.2Z"/></clipPath></defs><g id="_6_6" data-name="6/6"><path class="cls-2" d="M.9.2V116.85H6.37c-.49-4.82,1-9.11,3.28-13.09,2.67-4.71,2.65-9.79,2.26-15-.41-5.57-.73-11.14-1.11-16.71-.51-7.14-1.06-14.27-1.6-21.42q-.63-8.48-1.28-17c-.52-6.62-1-13.26-1.6-19.88C6.09,10.91,5.88,8,5.47,5.15A9.36,9.36,0,0,0,4.25,1.87,3.09,3.09,0,0,0,.9.2Z"/><g class="cls-3"><rect class="cls-4" x="-4.7" width="22.99" height="117"/></g></g></svg>