<svg xmlns="http://www.w3.org/2000/svg" xmlns:xlink="http://www.w3.org/1999/xlink" viewBox="0 0 13 117"><defs><style>.cls-1{fill:none;}.cls-2{fill:gray;}.cls-3{clip-path:url(#clip-path);}.cls-4{fill:#f7a833;}</style><clipPath id="clip-path"><path class="cls-1" d="M12.57.2V116.85H6.64c.53-4.82-1.11-9.12-3.55-13.09C.2,99.05.21,94,.63,88.76c.46-5.57.8-11.14,1.22-16.71C2.39,64.91,3,57.78,3.57,50.63q.69-8.48,1.39-17c.57-6.62,1.13-13.26,1.73-19.88C7,10.91,7.17,8,7.61,5.15A9,9,0,0,1,8.94,1.87,3.44,3.44,0,0,1,12.57.2Z"/></clipPath></defs><g id="_1_6" data-name="1/6"><path class="cls-2" d="M12.57.2V116.85H6.64c.53-4.82-1.11-9.12-3.55-13.09C.2,99.05.21,94,.63,88.76c.46-5.57.8-11.14,1.22-16.71C2.39,64.91,3,57.78,3.57,50.63q.69-8.48,1.39-17c.57-6.62,1.13-13.26,1.73-19.88C7,10.91,7.17,8,7.61,5.15A9,9,0,0,1,8.94,1.87,3.44,3.44,0,0,1,12.57.2Z"/><g class="cls-3"><rect class="cls-4" x="-3.32" y="97.5" width="20.78" height="19.5"/></g></g></svg>