<svg xmlns="http://www.w3.org/2000/svg" xmlns:xlink="http://www.w3.org/1999/xlink" viewBox="0 0 13 117"><defs><style>.cls-1{fill:none;}.cls-2{clip-path:url(#clip-path);}.cls-3{fill:gray;}.cls-4{fill:#fff;}.cls-5{clip-path:url(#clip-path-2);}.cls-6{fill:#f7a833;}</style><clipPath id="clip-path"><rect id="SVGID" class="cls-1" x="0.43" y="0.61" width="12.14" height="115.77"/></clipPath><clipPath id="clip-path-2"><path class="cls-1" d="M3.63,116.39H9.37L9,20.77S9.11.61,6.5.61,3.92,20.77,3.92,20.77Z"/></clipPath></defs><g id="_1_6" data-name="1/6"><g class="cls-2"><path class="cls-3" d="M3.63,116.39H9.37L9,20.77S9.11.61,6.5.61,3.92,20.77,3.92,20.77Z"/><path class="cls-4" d="M6.52,1.44,6.64,58.5l0,14.26V87L6.6,101.29l0,7.13-.06,7.14h0l-.06-7.14,0-7.13L6.33,87V72.76l0-14.26L6.48,1.44Z"/></g><g class="cls-5"><rect class="cls-6" x="-3" y="97.5" width="20.78" height="19.5"/></g><path class="cls-4" d="M6.52,1.44,6.64,58.5l0,14.26V87L6.6,101.29l0,7.13-.06,7.14h0l-.06-7.14,0-7.13L6.33,87V72.76l0-14.26L6.48,1.44Z"/></g></svg>